<svg xmlns="http://www.w3.org/2000/svg" viewBox="0 0 49.25 48"><defs><style>.cls-1{fill:#00416b;}.cls-2{fill:none;}</style></defs><title>educação</title><g id="Layer_2" data-name="Layer 2"><g id="outline"><path class="cls-1" d="M40.45,15v3.55L28.13,23.73a9,9,0,0,1-3.4.61,8.75,8.75,0,0,1-3.07-.5l-13.07-5c0-.48,0-.92,0-1.33,0-1.49.08-2.48.08-2.48Z"/><path class="cls-1" d="M28.61,25.89l11.84-5V28h0a36.14,36.14,0,0,1-32,0h0v-.4c0-2.24.07-4.09.14-6.51L21.21,26a9.88,9.88,0,0,0,3.52.59A10.37,10.37,0,0,0,28.61,25.89Z"/><path class="cls-1" d="M24.43,44.47c-8.68,0-16-7.7-16-16.82a1,1,0,0,1,.43-.82,1,1,0,0,1,.92-.12c13,4.82,16.52,4.82,29.33,0a1,1,0,0,1,1.35.94C40.44,36.77,33.11,44.47,24.43,44.47ZM10.49,29.11c.74,7.27,6.94,13.36,13.94,13.36s13.19-6.09,13.94-13.35C26.66,33.41,22.32,33.41,10.49,29.11Z"/><circle class="cls-1" cx="44.57" cy="27.45" r="1.99"/><path class="cls-1" d="M48.63,14.63l-.16.18-.14.14-2.26,1.16-.58.3-2.42,1-2.62,1.11L28.13,23.73a9,9,0,0,1-3.4.61,8.75,8.75,0,0,1-3.07-.5l-13.07-5L2.31,16.38A4,4,0,0,1,.63,15.25,2.59,2.59,0,0,1,0,13.55a2.66,2.66,0,0,1,.63-1.68,3.87,3.87,0,0,1,1.7-1.13L21.67,3.46a10.47,10.47,0,0,1,6.41,0L46.87,10.1a3.94,3.94,0,0,1,1.76,1.14,2.65,2.65,0,0,1,.6,1.36A2.61,2.61,0,0,1,48.63,14.63Z"/><path class="cls-2" d="M48,12.76c-.05-.45-.37-1.07-1.54-1.49L27.66,4.58A8.31,8.31,0,0,0,25,4.18a8.46,8.46,0,0,0-2.86.45L2.77,11.91c-1.32.49-1.52,1.24-1.52,1.64s.19,1.16,1.51,1.66l5.87,2.26,13.48,5.2a8.79,8.79,0,0,0,5.53-.09l12.81-5.4,2.62-1.1L45,15.26l1.06-.55,1.5-.77A1.39,1.39,0,0,0,48,12.76Zm0,0c-.05-.45-.37-1.07-1.54-1.49L27.66,4.58A8.31,8.31,0,0,0,25,4.18a8.46,8.46,0,0,0-2.86.45L2.77,11.91c-1.32.49-1.52,1.24-1.52,1.64s.19,1.16,1.51,1.66l5.87,2.26,13.48,5.2a8.79,8.79,0,0,0,5.53-.09l12.81-5.4,2.62-1.1L45,15.26l1.06-.55,1.5-.77A1.39,1.39,0,0,0,48,12.76Zm-4.92,3.32L45,15.26l1.06-.55,1.5-.77A1.39,1.39,0,0,0,48,12.76c-.05-.45-.37-1.07-1.54-1.49L27.66,4.58A8.31,8.31,0,0,0,25,4.18a8.46,8.46,0,0,0-2.86.45L2.77,11.91c-1.32.49-1.52,1.24-1.52,1.64s.19,1.16,1.51,1.66l5.87,2.26,13.48,5.2a8.79,8.79,0,0,0,5.53-.09l12.81-5.4Z"/><path class="cls-1" d="M44.57,28.08a1.5,1.5,0,0,1-1.5-1.5V13.28a1.5,1.5,0,0,1,3,0v13.3A1.5,1.5,0,0,1,44.57,28.08Z"/><path class="cls-2" d="M40.45,18.54v1.35l-11.84,5a10.37,10.37,0,0,1-3.88.7A9.88,9.88,0,0,1,21.21,25L8.55,20.12c0-.46,0-.9,0-1.32l13.07,5a8.75,8.75,0,0,0,3.07.5,9,9,0,0,0,3.4-.61Z"/><path class="cls-2" d="M.63,0V48h48V0Z"/></g></g></svg>