<svg xmlns="http://www.w3.org/2000/svg" viewBox="0 0 56.37 48"><defs><style>.cls-1,.cls-2,.cls-3{fill:none;}.cls-1,.cls-2{stroke:#00416b;stroke-linecap:round;stroke-linejoin:round;}.cls-1{stroke-width:3px;}.cls-2{stroke-width:2px;}</style></defs><title>Educação</title><g id="Layer_2" data-name="Layer 2"><g id="outline"><path class="cls-1" d="M28.33,38.5S13,34.16,8.05,35.5V5.75c6.2-2.25,20.28,3,20.28,3Z"/><path class="cls-1" d="M28.33,38.5s15.34-4.34,20.28-3V5.75c-6.19-2.25-20.28,3-20.28,3Z"/><polyline class="cls-1" points="7.17 10.5 3.42 10.5 3.42 42.83 53.25 42.05 53.25 10.5 49.46 10.5"/><path class="cls-2" d="M13.17,10.83A18.81,18.81,0,0,1,24,13.33"/><path class="cls-2" d="M13.17,17.32A18.81,18.81,0,0,1,24,19.82"/><path class="cls-2" d="M13.17,23.81A18.81,18.81,0,0,1,24,26.31"/><path class="cls-2" d="M13.17,30.29A18.91,18.91,0,0,1,24,32.79"/><path class="cls-2" d="M43.89,10.55a18.91,18.91,0,0,0-10.83,2.5"/><path class="cls-2" d="M43.89,17a18.91,18.91,0,0,0-10.83,2.5"/><path class="cls-2" d="M43.89,23.53A18.81,18.81,0,0,0,33.06,26"/><path class="cls-2" d="M43.89,30a18.81,18.81,0,0,0-10.83,2.5"/><rect class="cls-3" width="56.37" height="48"/></g></g></svg>